<svg width="22" height="22" viewBox="0 0 22 22" fill="none" xmlns="http://www.w3.org/2000/svg">
<path d="M21.5217 11.239C21.5217 5.48067 16.8101 0.811035 11 0.811035C5.18991 0.811035 0.478271 5.48067 0.478271 11.239C0.478271 16.9973 5.18991 21.667 11 21.667C11.0618 21.667 11.1233 21.6657 11.185 21.6646V13.5469H8.92443V10.9359H11.185V9.01453C11.185 6.78624 12.5575 5.57345 14.5631 5.57345C15.5235 5.57345 16.349 5.64441 16.5897 5.67607V8.00492H15.2067C14.1156 8.00492 13.9043 8.51888 13.9043 9.27294V10.9359H16.5133L16.1733 13.5469H13.9043V21.2641C18.3023 20.0145 21.5217 15.9988 21.5217 11.239Z" fill="black" fill-opacity="0.7"/>
</svg>
