<svg width="22" height="22" viewBox="0 0 22 22" fill="none" xmlns="http://www.w3.org/2000/svg">
<path d="M13.1428 11.1912C13.1428 12.3034 12.2412 13.2051 11.1289 13.2051C10.0166 13.2051 9.11499 12.3034 9.11499 11.1912C9.11499 10.0789 10.0166 9.17725 11.1289 9.17725C12.2412 9.17725 13.1428 10.0789 13.1428 11.1912Z" fill="black" fill-opacity="0.7"/>
<path d="M15.8385 7.62816C15.7417 7.36582 15.5873 7.12837 15.3866 6.93346C15.1917 6.73277 14.9544 6.57832 14.6919 6.48152C14.479 6.39883 14.1592 6.30042 13.5701 6.27361C12.9329 6.24455 12.7419 6.23828 11.1287 6.23828C9.51532 6.23828 9.32427 6.24438 8.68721 6.27344C8.09816 6.30042 7.77818 6.39883 7.56545 6.48152C7.30295 6.57832 7.06551 6.73277 6.87076 6.93346C6.67007 7.12837 6.51562 7.36566 6.41865 7.62816C6.33597 7.84105 6.23755 8.16102 6.21074 8.75008C6.18168 9.38713 6.17542 9.57819 6.17542 11.1916C6.17542 12.8047 6.18168 12.9958 6.21074 13.633C6.23755 14.2221 6.33597 14.5419 6.41865 14.7548C6.51562 15.0173 6.66991 15.2546 6.8706 15.4495C7.06551 15.6502 7.30279 15.8046 7.56529 15.9014C7.77818 15.9843 8.09816 16.0826 8.68721 16.1095C9.32427 16.1386 9.51516 16.1446 11.1285 16.1446C12.7421 16.1446 12.9331 16.1386 13.5699 16.1095C14.1591 16.0826 14.479 15.9843 14.6919 15.9014C15.2188 15.6982 15.6353 15.2817 15.8385 14.7548C15.9213 14.5419 16.0196 14.2221 16.0466 13.633C16.0757 12.9958 16.0818 12.8047 16.0818 11.1916C16.0818 9.57819 16.0757 9.38713 16.0466 8.75008C16.0198 8.16102 15.9214 7.84105 15.8385 7.62816ZM11.1287 14.2938C9.41513 14.2938 8.02606 12.905 8.02606 11.1914C8.02606 9.47785 9.41513 8.08893 11.1287 8.08893C12.842 8.08893 14.2311 9.47785 14.2311 11.1914C14.2311 12.905 12.842 14.2938 11.1287 14.2938ZM14.3538 8.69131C13.9534 8.69131 13.6288 8.36669 13.6288 7.96628C13.6288 7.56587 13.9534 7.24123 14.3538 7.24123C14.7542 7.24123 15.0789 7.56587 15.0789 7.96628C15.0787 8.36669 14.7542 8.69131 14.3538 8.69131Z" fill="black" fill-opacity="0.7"/>
<path d="M11.1289 0.669434C5.31881 0.669434 0.607178 5.38106 0.607178 11.1912C0.607178 17.0013 5.31881 21.7129 11.1289 21.7129C16.9391 21.7129 21.6507 17.0013 21.6507 11.1912C21.6507 5.38106 16.9391 0.669434 11.1289 0.669434ZM17.1343 13.682C17.105 14.3252 17.0028 14.7643 16.8534 15.1487C16.5396 15.9603 15.8981 16.6018 15.0865 16.9157C14.7022 17.065 14.263 17.1671 13.62 17.1965C12.9757 17.2259 12.7699 17.2329 11.129 17.2329C9.4881 17.2329 9.28244 17.2259 8.63799 17.1965C7.995 17.1671 7.55574 17.065 7.17154 16.9157C6.76824 16.764 6.40316 16.5263 6.10133 16.2187C5.79404 15.9171 5.55626 15.5519 5.40454 15.1487C5.25523 14.7645 5.15296 14.3252 5.12374 13.6822C5.09404 13.0378 5.08714 12.832 5.08714 11.1912C5.08714 9.55036 5.09404 9.34453 5.12358 8.70026C5.1528 8.05709 5.25491 7.61799 5.40422 7.23364C5.55594 6.8305 5.79387 6.46525 6.10133 6.16358C6.403 5.85613 6.76824 5.61836 7.17138 5.46664C7.55574 5.31733 7.99484 5.21522 8.63799 5.18584C9.28228 5.15646 9.4881 5.14939 11.1289 5.14939C12.7698 5.14939 12.9755 5.15646 13.6198 5.186C14.263 5.21522 14.7021 5.31733 15.0865 5.46648C15.4895 5.61819 15.8548 5.85613 16.1567 6.16358C16.4639 6.46541 16.7019 6.8305 16.8534 7.23364C17.0029 7.61799 17.105 8.05709 17.1344 8.70026C17.1638 9.34453 17.1707 9.55036 17.1707 11.1912C17.1707 12.832 17.1638 13.0378 17.1343 13.682Z" fill="black" fill-opacity="0.7"/>
</svg>
