<svg width="22" height="22" viewBox="0 0 22 22" fill="none" xmlns="http://www.w3.org/2000/svg">
<path d="M11 0.811035C5.18991 0.811035 0.478271 5.48068 0.478271 11.239C0.478271 16.9973 5.18991 21.667 11 21.667C16.8101 21.667 21.5217 16.9973 21.5217 11.239C21.5217 5.48068 16.8101 0.811035 11 0.811035ZM15.8041 8.94166C15.8087 9.04429 15.811 9.1474 15.811 9.25098C15.811 12.4138 13.3819 16.0609 8.93968 16.0611H8.93985H8.93968C7.57583 16.0611 6.30668 15.6649 5.2379 14.986C5.42687 15.0081 5.61921 15.0191 5.81396 15.0191C6.94551 15.0191 7.98682 14.6365 8.8135 13.9944C7.75628 13.975 6.86491 13.2831 6.5573 12.332C6.70452 12.36 6.85592 12.3752 7.01117 12.3752C7.2316 12.3752 7.44514 12.3459 7.64807 12.291C6.54301 12.0716 5.71056 11.1037 5.71056 9.94471C5.71056 9.9339 5.71056 9.92424 5.71089 9.9142C6.03631 10.0935 6.40847 10.2014 6.80471 10.2135C6.15625 9.78469 5.72999 9.05161 5.72999 8.22117C5.72999 7.78265 5.8496 7.3718 6.05703 7.01808C7.24798 8.46638 9.02783 9.41885 11.035 9.51894C10.9936 9.34359 10.9723 9.16093 10.9723 8.97316C10.9723 7.65185 12.0538 6.57987 13.3875 6.57987C14.0822 6.57987 14.7097 6.8709 15.1504 7.33616C15.7006 7.22859 16.2172 7.02938 16.684 6.75522C16.5033 7.31388 16.1206 7.78265 15.6219 8.07908C16.1104 8.02116 16.5761 7.89275 17.0087 7.70213C16.6856 8.18219 16.2756 8.60385 15.8041 8.94166Z" fill="black" fill-opacity="0.7"/>
</svg>
