<svg width="120" height="64" viewBox="0 0 120 64" fill="none" xmlns="http://www.w3.org/2000/svg">
<g clip-path="url(#clip0_1:786)">
<path d="M11.5527 18.8885H14.1814C15.7823 18.6559 17.4172 18.8604 18.9085 19.4798C20.7795 20.5901 22.1366 22.3775 22.6902 24.4607C23.0822 25.5525 23.0822 25.5525 24.0277 25.1658H24.7656V16.5231H0.0230617V18.047H1.03767C1.47857 18.0439 1.91455 18.1384 2.31359 18.3234C2.71263 18.5084 3.06458 18.7792 3.34358 19.1159C4.28901 20.617 4.45042 22.3001 4.45042 31.0565C4.45042 40.3588 4.24289 42.6332 3.34358 43.7931C3.12157 44.0913 2.83413 44.3362 2.50272 44.5095C2.17131 44.6828 1.8045 44.78 1.42967 44.7938C0.0230617 45.044 0.0230617 45.0213 0.0230617 45.6354C-0.054725 45.8407 -0.054725 46.0668 0.0230617 46.2722H15.6341C15.7374 46.0713 15.7913 45.8492 15.7913 45.624C15.7913 45.3987 15.7374 45.1767 15.6341 44.9758C15.256 44.872 14.8707 44.796 14.4812 44.7483C14.0598 44.6989 13.6433 44.6152 13.236 44.4982C12.6526 44.0781 12.1905 43.5152 11.8953 42.865C11.6 42.2148 11.4819 41.4999 11.5527 40.7909C11.3221 39.2898 11.2068 36.5378 11.2068 34.2634V32.4666H12.1291C13.2783 32.4319 14.4268 32.5544 15.5419 32.8305C16.0761 33.1561 16.5308 33.594 16.8736 34.113C17.2164 34.632 17.4388 35.2192 17.525 35.8327L17.7325 36.5378H19.1391V26.4622H17.8478L17.6403 27.4402C17.553 28.0676 17.3176 28.6661 16.9532 29.1875C16.5887 29.7089 16.1054 30.1388 15.5419 30.4424C14.9962 30.6026 14.4213 30.6414 13.8586 30.5561H11.2068V28.0998C11.2068 25.5525 11.3451 20.1849 11.4374 19.3434L11.5527 18.8885ZM119.47 36.9244C118.38 35.1941 116.68 33.9223 114.696 33.3536C113.176 32.8849 111.771 32.1105 110.569 31.0792C110.298 30.8212 110.096 30.5019 109.979 30.1491C109.863 29.7962 109.836 29.4206 109.9 29.055C109.902 28.3379 110.192 27.6508 110.707 27.1445C111.056 26.7839 111.498 26.5237 111.985 26.3915C112.473 26.2593 112.987 26.2601 113.474 26.394C114.482 26.6774 115.394 27.2244 116.112 27.9771C116.831 28.7299 117.33 29.6603 117.556 30.6698C117.925 31.6933 117.971 31.6933 118.639 31.4204L119.055 31.2612V25.5979L118.755 25.4615C116.485 24.6751 114.077 24.3501 111.676 24.5062C109.608 24.5579 107.634 25.369 106.141 26.7806C105.464 27.4058 104.934 28.1695 104.587 29.0181C104.241 29.8667 104.087 30.7797 104.135 31.6933C104.148 33.0901 104.71 34.4273 105.703 35.4233C106.801 36.4877 108.147 37.2689 109.623 37.6977C113.198 39.0851 114.235 39.9721 114.235 41.5869C114.251 42.2679 114.031 42.9338 113.612 43.4752C113.193 44.0167 112.599 44.4014 111.929 44.5664C111.124 44.7409 110.29 44.7409 109.485 44.5664C108.431 44.1628 107.49 43.5168 106.74 42.6821C105.99 41.8474 105.452 40.8482 105.173 39.7674L104.873 39.0396H104.458C104.26 39.0542 104.065 39.1002 103.882 39.1761H103.651V45.6354H104.043C105.601 46.1465 107.208 46.4971 108.839 46.6816H111.145C112.145 46.754 113.151 46.6617 114.12 46.4087C115.351 46.1847 116.5 45.647 117.455 44.849C118.41 44.051 119.136 43.0205 119.562 41.8599C119.837 41.2116 119.978 40.5157 119.977 39.8129C120.068 38.8229 119.893 37.8267 119.47 36.9244ZM97.7479 25.1658C96.3661 24.5936 94.8772 24.316 93.379 24.3513C91.8808 24.3866 90.4071 24.7339 89.0546 25.3705C87.7832 25.9839 86.6564 26.8534 85.7469 27.9229C84.8373 28.9923 84.1652 30.2381 83.774 31.5796C83.2752 33.0431 83.0639 34.5869 83.1514 36.1284C83.1349 36.9671 83.2044 37.8053 83.3589 38.6302C83.7313 40.6585 84.7241 42.5259 86.2039 43.9814C87.6838 45.4369 89.5797 46.4109 91.6372 46.7726C92.977 46.9391 94.3327 46.9391 95.6725 46.7726C97.0629 46.5309 98.3935 46.0291 99.5926 45.2942C100.585 44.7457 101.424 43.9646 102.037 43.0198C101.998 42.8716 101.928 42.7327 101.833 42.6115C101.738 42.4904 101.619 42.3894 101.483 42.3147C101.22 42.4087 100.972 42.5389 100.746 42.7014C99.5986 43.4469 98.2443 43.8207 96.8716 43.7704C95.9605 43.8311 95.0472 43.6912 94.1977 43.3608C93.3482 43.0303 92.5838 42.5176 91.96 41.8599C91.4775 41.4178 91.0792 40.894 90.784 40.3133C90.0675 38.8994 89.6813 37.345 89.6541 35.7645V34.8775H102.429V34.4226C102.457 33.9681 102.457 33.5124 102.429 33.058C102.424 31.452 101.989 29.8759 101.167 28.4897C100.344 27.1035 99.1649 25.9567 97.7479 25.1658ZM91.3144 33.0352H89.7002V31.6933C90.2306 28.259 91.545 26.212 93.1591 26.212C94.7732 26.212 95.465 28.2362 95.7648 31.9435V32.9897H94.3812L91.3144 33.0352ZM58.1553 24.4153C57.3585 24.3848 56.5664 24.5488 55.8493 24.8929C54.2908 25.6394 53.032 26.881 52.2752 28.4182L51.9754 28.9641V24.4153H51.8601C51.5834 24.4153 43.0515 26.0983 42.7748 26.212C42.4981 26.3258 42.5903 26.3485 42.5903 26.7579C42.5903 27.1673 42.5903 27.2355 42.7748 27.2583L43.6741 27.4402C43.926 27.4463 44.1731 27.5089 44.3969 27.6231C44.6206 27.7374 44.815 27.9004 44.9654 28.0998C45.5419 28.8503 45.6572 30.1695 45.6572 35.7872C45.7711 38.3163 45.6631 40.8503 45.3344 43.361C45.257 43.7395 45.0623 44.0851 44.7773 44.3499C44.4923 44.6147 44.131 44.7857 43.7433 44.8393L42.9593 44.9985H42.6595V45.6354C42.5758 45.8475 42.5758 46.0828 42.6595 46.2949H55.5496V45.6354C55.5943 45.4177 55.5943 45.1934 55.5496 44.9758C54.7735 44.946 54.0017 44.847 53.2437 44.6801C52.8309 44.4671 52.4931 44.1358 52.275 43.7299C52.0568 43.3239 51.9685 42.8622 52.0215 42.4057C51.837 41.0866 51.7448 37.2201 51.7909 34.2634C51.837 31.3067 51.7909 31.1247 52.0446 30.92C52.8162 30.3365 53.771 30.0387 54.7425 30.0785C55.6582 30.0982 56.5573 30.3238 57.3713 30.7381C57.6534 30.8926 57.9561 31.0075 58.2706 31.0792C58.2706 31.0792 60.5765 25.5752 60.5765 25.325C60.2814 24.9868 59.9055 24.7265 59.4827 24.5676C59.0599 24.4088 58.6037 24.3564 58.1553 24.4153ZM42.6134 33.9677C42.5329 32.3424 42.0598 30.7597 41.2335 29.3513C40.4073 27.9429 39.2517 26.7496 37.8632 25.8709C36.2131 24.9928 34.3772 24.5087 32.503 24.4574C30.6288 24.406 28.7685 24.7889 27.0715 25.5752C24.6722 26.8231 22.8606 28.9444 22.0215 31.4886C21.1549 34.3371 21.1549 37.3738 22.0215 40.2223C22.4758 41.7791 23.325 43.1959 24.4889 44.339C25.9383 45.734 27.8074 46.6278 29.8155 46.8863C31.1046 46.9926 32.4004 46.9926 33.6895 46.8863C34.1638 46.8151 34.6335 46.7164 35.0961 46.5906C36.973 46.0727 38.6616 45.0384 39.9643 43.6085C41.267 42.1786 42.1298 40.4124 42.452 38.5165C42.6822 37.0113 42.7363 35.4851 42.6134 33.9677ZM33.0208 45.3397C30.7148 46.022 28.9854 43.8158 28.4089 39.1761C28.1972 36.747 28.1972 34.3044 28.4089 31.8753C28.8701 28.1453 30.0461 26.2575 31.8678 26.2575C32.2353 26.2351 32.603 26.2997 32.9399 26.4461C33.2769 26.5925 33.5735 26.8164 33.8048 27.099C35.3497 28.6229 36.1107 31.6478 36.1107 36.1966C36.3025 38.771 35.8923 41.3544 34.9116 43.7476C34.4786 44.4456 33.8086 44.9694 33.0208 45.226V45.3397ZM74.5273 24.8701C73.8766 24.7876 73.2179 24.7876 72.5672 24.8701C71.3183 24.8691 70.0836 25.1328 68.947 25.6434L68.2321 25.9391V21.0037C68.357 19.3381 68.357 17.6656 68.2321 16C67.9554 16 59.1468 17.6603 59.0085 17.7285C58.9404 17.8965 58.9404 18.0837 59.0085 18.2517C59.0085 18.7293 59.0085 18.7065 60.0461 18.934C60.3375 18.9984 60.6173 19.1058 60.8762 19.2524C61.3264 19.6699 61.6259 20.2209 61.7294 20.8217C61.992 22.5526 62.077 24.3051 61.9831 26.0528V46.022L62.6057 46.1585C63.528 46.3632 66.1337 46.7953 66.9869 46.8863C68.6906 47.0199 70.4024 47.0199 72.1061 46.8863C73.9971 46.6958 75.7995 45.9999 77.3193 44.8737C78.839 43.7475 80.0183 42.2336 80.7302 40.4952C81.1546 39.3795 81.4486 38.2196 81.6064 37.0382C81.7437 35.4378 81.6895 33.8271 81.445 32.2392C81.1977 30.4593 80.4012 28.7975 79.1637 27.4793C77.9262 26.161 76.3075 25.2501 74.5273 24.8701ZM68.4858 44.953C68.4858 44.6574 68.2552 34.6955 68.3013 30.7153V27.5994L68.97 27.4402C69.4212 27.3764 69.8793 27.3764 70.3305 27.4402C70.8295 27.3902 71.3314 27.502 71.7602 27.7586C72.6213 28.3448 73.3364 29.1161 73.8517 30.0143C74.3669 30.9125 74.6689 31.9143 74.7348 32.9442C74.9028 34.6004 74.9028 36.269 74.7348 37.9252C74.5968 40.3323 73.6565 42.627 72.06 44.4527C71.6068 44.8772 71.0377 45.1618 70.4227 45.2715C69.9574 45.3513 69.4815 45.3513 69.0161 45.2715C68.578 45.2715 68.578 45.135 68.578 44.953H68.4858Z" fill="black"/>
</g>
<defs>
<clipPath id="clip0_1:786">
<rect width="120" height="31" fill="white" transform="translate(0 16)"/>
</clipPath>
</defs>
</svg>
