<svg width="120" height="64" viewBox="0 0 120 64" fill="none" xmlns="http://www.w3.org/2000/svg">
<path d="M0 21H8.79752C10.4732 21 11.73 21.416 12.661 22.1092C13.685 22.9412 14.2436 24.1429 14.2436 25.6218C14.2436 27.3319 13.5454 28.395 12.149 29.042V29.1345C14.0109 29.7353 15.0815 31.3992 15.0815 33.3866C15.0815 35.2815 14.3367 36.7605 13.1265 37.6849C12.1024 38.4244 10.7991 38.7479 9.03025 38.7479H0V21ZM7.91311 27.9328C8.84407 27.9328 9.54228 27.4244 9.54228 26.3613C9.54228 25.3445 8.84406 24.8361 7.86656 24.8361H4.84096V27.8866H7.91311V27.9328ZM8.33204 34.8193C9.40264 34.8193 10.1939 34.1723 10.1939 33.0168C10.1939 31.7689 9.35609 31.2143 8.33204 31.2143H4.88751V34.8655H8.33204V34.8193Z" fill="black"/>
<path d="M15.8728 21H20.481V38.7941H15.8728V21Z" fill="black"/>
<path d="M21.4119 32.4624C21.4119 28.4414 24.0186 25.7607 28.0683 25.7607C32.1179 25.7607 34.678 28.4876 34.678 32.4624C34.678 36.4834 32.1179 39.1641 28.0683 39.1641C24.0186 39.1641 21.4119 36.4834 21.4119 32.4624ZM30.0698 32.4624C30.0698 30.2439 29.3716 28.8574 27.9752 28.8574C26.5787 28.8574 25.9271 30.2439 25.9271 32.4624C25.9271 34.6809 26.5787 36.1137 27.9752 36.1137C29.3716 36.0675 30.0698 34.6809 30.0698 32.4624Z" fill="black"/>
<path d="M35.1901 32.4624C35.1901 28.4414 37.7967 25.7607 41.8464 25.7607C45.896 25.7607 48.4096 28.4414 48.4096 32.4624C48.4096 36.4834 45.8495 39.1641 41.7998 39.1641C37.7967 39.1641 35.1901 36.4834 35.1901 32.4624ZM43.8479 32.4624C43.8479 30.2439 43.1497 28.8574 41.7533 28.8574C40.3569 28.8574 39.7052 30.2439 39.7052 32.4624C39.7052 34.6809 40.3569 36.1137 41.7533 36.1137C43.1497 36.0675 43.8479 34.6809 43.8479 32.4624Z" fill="black"/>
<path d="M49.3406 26.0841H53.623V27.9791H53.7161C54.5539 26.5001 55.7176 25.7144 57.5795 25.7144C59.2087 25.7144 60.4189 26.5001 61.0241 27.8866H61.1171C62.1412 26.2228 63.4911 25.7144 65.0737 25.7144C68.0528 25.7144 69.3095 27.8866 69.3095 30.7984V38.748H64.841V31.5841C64.841 30.29 64.422 29.4581 63.3049 29.4581C62.1877 29.4581 61.6292 30.4749 61.6292 31.8614V38.748H57.1606V31.5841C57.1606 30.29 56.7417 29.4581 55.6245 29.4581C54.5074 29.4581 53.9488 30.4749 53.9488 31.8614V38.748H49.3406V26.0841Z" fill="black"/>
<path d="M74.9418 37.084H74.8953V38.7479H70.6129V21H75.0815V27.3782H75.1746C76.0124 26.2689 77.1761 25.6681 78.8053 25.6681C82.0171 25.6681 83.879 28.5336 83.879 32.3697C83.879 36.6681 81.8775 39.1639 78.526 39.1639C77.1296 39.1639 75.6866 38.5168 74.9418 37.084ZM79.2708 32.3235C79.2708 30.2899 78.526 28.9496 77.1761 28.9496C75.7797 28.9496 74.9418 30.2899 74.9418 32.3235C74.9418 34.3571 75.8262 35.6975 77.1761 35.6975C78.526 35.6975 79.2708 34.4034 79.2708 32.3235Z" fill="black"/>
<path d="M84.391 32.416C84.391 28.4412 87.0442 25.7144 90.8611 25.7144C92.7696 25.7144 94.2126 26.3152 95.3297 27.3782C96.8192 28.811 97.4709 31.0295 97.4244 33.6177H88.8596C89.0458 35.1891 89.7905 36.0211 91.1404 36.0211C91.9317 36.0211 92.6299 35.6513 92.9092 34.8194H97.2382C96.4934 37.7312 94.2126 39.1639 91.0008 39.1639C87.0442 39.1177 84.391 36.437 84.391 32.416ZM88.8596 31.0757H92.9558C92.8627 29.5505 92.0248 28.7648 90.9542 28.7648C89.6974 28.7186 88.9992 29.5967 88.8596 31.0757Z" fill="black"/>
<path d="M102.498 28.2562H102.591C103.522 26.4999 104.732 25.8066 106.268 25.8066C106.641 25.8066 106.874 25.8529 107.013 25.9453V29.8277H106.92C104.267 29.3655 102.731 30.6134 102.731 33.4789V38.794H98.2157V26.084H102.498V28.2562Z" fill="black"/>
<path d="M107.479 38.794H111.808C111.994 39.3486 112.552 39.857 113.623 39.857C115.066 39.857 115.578 38.9789 115.578 37.6386V36.7142H115.485C114.787 37.5461 113.809 38.147 112.413 38.147C109.666 38.147 107.246 36.1133 107.246 32.1386C107.246 28.4873 109.201 25.668 112.18 25.668C113.902 25.668 114.926 26.3612 115.624 27.4243H115.718V26.0377H120V37.0377C120 39.0713 119.302 40.6428 118.231 41.5671C117.114 42.5377 115.531 42.9537 113.716 42.9537C110.272 42.9999 107.898 41.6133 107.479 38.794ZM115.764 31.9537C115.764 30.3823 115.019 29.0881 113.716 29.0881C112.459 29.0881 111.668 30.1974 111.668 31.9537C111.668 33.6638 112.459 34.8654 113.716 34.8654C114.973 34.8654 115.764 33.6175 115.764 31.9537Z" fill="black"/>
</svg>
