<svg width="120" height="64" viewBox="0 0 120 64" fill="none" xmlns="http://www.w3.org/2000/svg">
<path d="M25.5058 6.60585L24.1094 11.5797L22.6822 6.83113L24.1098 1.51934L25.5062 6.60713L25.5058 6.60585ZM33.9616 18.677C33.8881 22.0561 33.1458 25.448 32.1169 25.448C31.1578 25.448 30.5662 23.4129 30.2391 21.0322L30.1105 21.3137V44.6075L31.9883 48.5165L33.0172 44.8302L33.1789 45.332L30.7242 54.2174L27.3068 47.0113V46.7834C27.6595 46.3905 27.8065 45.163 27.8065 43.206V25.1587C29.2506 22.5348 30.816 19.1302 31.7715 16.7213C31.9589 17.7888 32.3851 19.125 32.929 19.125C33.381 19.125 33.7337 18.7666 33.9101 18.3443L33.9763 18.677H33.9616ZM27.0165 46.8487L24.966 54.2852C23.8122 52.8901 23.1544 50.9318 23.1544 45.9016V23.9876L22.5297 22.4209L21.9528 24.488L21.8095 23.9888L23.8158 16.7315L25.9508 21.6465V21.7617C25.6238 22.4529 25.4694 23.0545 25.4694 25.448V45.0056C25.4694 46.6439 25.7671 48.2823 26.2742 48.5255L26.8842 46.3495L27.0275 46.8615L27.0165 46.8487ZM22.2357 47.0791L20.2 54.2852C19.1233 53.1717 18.4178 50.8166 18.4178 46.1831V25.5491L17.1206 22.4772L16.4004 25.105V47.5681L17.1537 49.1885L15.4707 54.2699L13.5635 48.7405V48.6253C13.8832 48.3181 14.078 47.3965 14.078 44.7726V6.54186C14.078 3.74773 13.9347 2.91064 13.773 1.95964L13.8869 1.79325C14.2397 2.86072 14.4601 3.75797 14.5447 5.64973H14.5777C15.0959 2.64569 15.7389 0.670732 16.9846 0.115234L17.0177 0.332826C16.6723 1.81757 16.4077 3.4303 16.4077 5.9262V24.0375L18.3994 16.7162C19.1233 18.4313 20.4756 21.8616 21.2711 23.5383V23.7047C20.9919 24.1143 20.775 24.8694 20.775 27.3397V44.2735C20.775 46.7438 20.9514 47.6269 21.5284 48.6253L22.1031 46.5531L22.2464 47.0522L22.2357 47.0791ZM58.5119 23.72C58.1922 24.232 58.0159 24.8976 58.0159 27.5855V45.6328C57.0641 47.0791 54.9034 51.3285 53.8121 54.3492C52.6435 51.6101 52.0335 50.1126 50.8282 47.4759V47.3095C51.1663 46.7591 51.328 46.1448 51.328 43.3417V25.4467C52.7905 22.9892 54.378 19.5205 55.4987 16.6714C56.2153 18.3225 57.6962 21.7016 58.5156 23.5447V23.7111L58.5119 23.72ZM55.6714 49.0886V25.9459C55.1276 24.7722 54.242 22.426 53.8745 21.475L53.6504 21.923V45.1707C53.9223 45.8401 54.8373 48.0186 55.3995 49.5277L55.6751 49.0797L55.6714 49.0886ZM50.1154 51.6485C50.1154 53.8244 49.2408 56.1284 48.289 58.8034C47.0397 62.3233 46.3966 64 46.3966 64C45.7793 62.7841 45.4228 62.4385 44.5042 62.4385C43.3466 62.4385 42.6889 62.8609 41.8731 64L41.8253 63.9488C42.4831 59.6738 43.7913 56.1283 45.6249 56.1283C46.4407 56.1283 47.3667 57.3059 47.9657 58.701C48.1237 58.3555 48.6234 57.0499 48.6234 56.0772C48.6234 53.2229 47.0838 53.5557 46.8596 48.2439L45.1435 54.3236C43.1335 49.7798 41.9833 47.2839 41.9833 47.2839V47.0663C42.3802 46.4775 42.4794 45.7864 42.4794 42.3177V25.4339C44.1771 22.3172 45.7499 19.198 46.7016 16.6611L49.6854 23.5345V23.7008C49.3168 24.3664 49.1886 24.9296 49.1886 28.0015V43.9804C49.1886 47.8036 50.1198 48.1632 50.1198 51.6383L50.1154 51.6485ZM46.8265 47.2327V25.7296C45.9299 23.7968 45.048 21.3777 45.048 21.3777L44.8091 21.8897V44.916L46.4297 48.7814L46.8339 47.2711L46.8265 47.2327ZM41.5497 47.0663L39.514 54.2724C38.588 53.2101 37.8052 51.5205 37.7354 47.0151L35.4388 54.2852C34.318 52.6085 33.5132 49.0886 33.5132 44.6216C33.5132 38.6443 34.9023 35.5468 36.1774 33.9468V33.8956C35.0823 32.0397 34.1784 28.5327 33.9322 24.2832L37.4635 16.6931L40.6237 24.0784V24.2576C40.2415 24.8208 40.0799 25.4864 40.0799 28.0079V44.3515C40.0799 46.1883 40.3003 48.1453 40.8332 48.6547L41.4138 46.5889L41.5607 47.0919L41.5497 47.0663ZM37.7318 32.6541V25.9984L35.7438 21.2497L35.4902 21.8129C35.5711 25.7552 35.7291 30.9134 36.486 33.5501C36.7616 33.2173 37.4084 32.7949 37.7391 32.6541H37.7318ZM37.7318 45.9528V33.3837C36.3354 33.9596 35.549 37.4027 35.549 41.7161C35.549 45.3 35.9201 47.4759 36.8498 48.7558L37.7318 45.9656V45.9528ZM13.4272 1.85724C13.3662 6.72105 12.3836 11.2444 10.6345 11.2444C10.4121 11.2444 10.21 11.1804 10.0245 11.0217V49.4675C11.1489 48.9709 12.1668 47.2877 13.1049 44.9979L13.1858 45.835C12.1495 50.046 10.1873 56.945 7.15566 56.945C3.02792 56.9462 2.51681e-07 47.1802 2.51681e-07 30.5153C-0.00110215 15.2327 3.61954 6.74665 5.96654 3.58518L6.15763 3.9218C3.94548 9.03776 2.75673 15.2237 2.75673 25.9958C2.75673 35.493 3.73602 42.2511 5.2114 46.219L5.70895 45.0414V15.5399C5.70895 12.8354 5.5965 11.9087 5.22757 11.5721V11.3493C6.70258 8.78689 9.0448 4.37106 10.3442 0.794887C10.7447 2.42554 11.2445 3.14231 11.868 3.14231C12.5493 3.14231 13.0072 2.30395 13.3122 1.52062L13.425 1.85724H13.4272ZM9.76724 49.5801V10.7401C9.18224 9.96316 8.77325 8.36834 8.40394 6.49578L8.3231 6.60713V40.0266L5.40322 46.7847C6.40272 49.2038 7.85973 49.639 9.3498 49.639C9.49054 49.639 9.62907 49.6262 9.76687 49.5878L9.76724 49.5801ZM112.741 47.2212L110.72 54.4299C109.421 52.9758 108.923 50.3494 108.923 46.2702V25.3699L107.848 22.6884L106.904 26.0969V47.6666L107.66 49.3433L105.978 54.4299L104.085 48.9517V48.7853C104.489 48.1146 104.585 47.4183 104.585 44.8725V26.3196C104.585 24.2512 104.28 22.7447 103.736 22.5207L103.126 24.6966L102.964 24.1386L105.018 16.8173C106.224 17.8796 106.911 20.6315 106.911 24.8656L109.127 16.8186C109.865 18.7129 110.931 21.3496 111.725 23.0135V23.1799C111.39 23.6279 111.276 24.5239 111.276 26.8662V44.5295C111.276 46.9614 111.515 47.9341 112.033 48.7789L112.61 46.7054L112.757 47.2045L112.741 47.2212ZM103.42 47.2749L101.447 54.4299C100.468 53.8129 99.6178 50.5721 99.6178 47.1086L97.2759 54.4299C96.3609 52.2347 95.5304 50.2316 94.7441 48.6163V48.4474C95.174 47.641 95.2585 47.193 95.2585 44.3669V26.0406C95.2585 24.0976 94.9866 23.0225 94.5383 22.4631L93.9797 24.4727L93.8217 23.9607L95.795 16.8058C96.7762 17.9705 97.5919 20.6072 97.5919 24.8438V46.2715L98.7017 48.8954L99.6167 45.9899V23.5818L98.9442 21.9601L100.565 16.8186L102.439 22.1176V22.2199C102.082 22.7959 101.957 23.4487 101.957 25.7398V43.9023C101.957 46.7438 102.071 47.8061 102.744 48.7661L103.273 46.7438L103.435 47.2429L103.42 47.2749ZM83.9917 6.76201L82.596 11.7346L81.168 6.986L82.596 1.67677L83.9924 6.75817L83.9917 6.76201ZM85.5001 46.987L83.4467 54.4235C82.2914 53.0283 81.6336 51.07 81.6336 46.0398V24.1412L81.0078 22.5758L80.4298 24.6429L80.2858 24.1386L82.2914 16.8749L84.4253 21.7924V21.9051C84.096 22.5988 83.9439 23.0852 83.9439 24.7555V45.1515C83.9439 46.7937 84.2401 48.4231 84.7461 48.6714L85.3561 46.4929L85.5001 46.9959V46.987Z" fill="black"/>
<path d="M80.4945 19.1671C80.382 21.9625 79.7724 25.7076 78.7138 25.7076C78.035 25.7076 77.5423 24.3637 77.2696 22.8559L77.0932 23.4703C77.102 23.7902 77.1094 24.4712 77.1094 24.8116V45.2652L78.8769 48.7288L79.4722 46.6041L79.6339 47.1083L77.5504 54.4847L74.3424 47.3899V47.2235C74.7135 46.6604 74.8238 45.9257 74.8238 43.9802V26.9338C74.8238 24.0833 74.6474 22.7996 73.9896 22.3516L73.3649 24.5864L73.2069 24.0833L75.2427 16.8184C76.2422 17.7527 76.8816 19.775 77.0579 22.6293L78.6307 16.8696C78.9357 18.2647 79.3032 19.3271 79.7368 19.3271C80.0271 19.3271 80.2365 19.1607 80.4423 18.8279L80.5085 19.1607L80.4945 19.1671Z" fill="black"/>
<path d="M74.4353 1.56538C74.2075 7.74369 73.4785 13.2449 71.5959 13.2449C71.3718 13.2449 71.0348 13.1336 70.8904 13.0785V49.7362C72.0295 49.1769 73.3399 47.2557 73.89 45.7134L73.9709 46.4391C73.1125 50.7269 70.7445 57.2803 67.8114 57.2803C64.1022 57.2803 61.2338 48.7814 61.2338 35.0476C61.2338 23.2208 64.039 14.6836 65.8704 12.4181L66.031 12.6485C64.7522 16.7059 63.8483 22.2353 63.8483 30.9261C63.8483 38.1834 64.6512 42.7144 65.8866 46.2471L66.576 45.0184V22.7472C66.576 20.3409 66.3518 19.5602 66.0953 19.3938V19.1762L69.1901 13.4804V41.3065L66.0792 46.7847C66.9133 49.0246 68.245 50.2021 69.5113 50.2021C69.9464 50.2021 70.147 50.1382 70.6343 49.8694V13.0824C68.3251 12.4117 65.8653 9.00188 63.9776 9.00188C62.6518 9.00188 61.6516 10.8988 61.6516 14.4199C61.6516 16.5472 62.1307 17.4598 62.4372 17.9398L62.1807 18.4441C61.6185 17.5481 60.913 15.4106 60.913 10.8924C60.913 4.31343 62.4343 0 64.4748 0C67.2988 0 69.9515 5.19659 72.447 5.19659C73.2157 5.19659 73.9301 3.77585 74.2917 1.17755L74.435 1.57434L74.4353 1.56538ZM119.993 27.4946C118.657 30.3412 117.068 34.007 115.855 37.0494V44.93L117.828 48.7289L118.919 44.8161L119.063 45.2641L116.513 54.4285L112.985 46.9408V46.7719C113.338 46.4391 113.533 45.6583 113.533 42.868V25.5363C114.962 23.3015 116.469 19.6152 117.56 16.7648L120 27.4946H119.993ZM117.843 31.3472C117.512 29.7178 116.442 24.2179 115.982 21.6836L115.855 21.9614V35.987L117.843 31.3485V31.3472ZM93.5377 23.8621C93.1445 24.4304 93.0563 25.4646 93.0563 27.2706V45.8234C92.0899 47.2647 89.9277 51.3618 88.8371 54.4311C88.0617 52.5521 86.8314 49.6095 85.8363 47.5578V47.3914C86.2692 46.7732 86.3662 45.9194 86.3662 42.8604V6.92964C86.3662 4.41454 86.2376 3.12819 86.0774 2.12344L86.1729 1.95704C86.5103 2.96308 86.7351 4.13551 86.8314 5.75593H86.863C87.3801 2.75445 88.0231 0.834527 89.2699 0.277749L89.2861 0.614375C88.9392 2.08632 88.6926 3.43026 88.6926 6.31015V24.1398L90.6817 16.8185C91.3726 18.5593 92.7708 22.0407 93.5377 23.6919V23.8582V23.8621ZM90.7144 49.1756V25.7027L89.4143 22.6308L88.6926 25.1996V45.0939L90.4734 49.6198L90.7122 49.1718L90.7144 49.1756Z" fill="black"/>
</svg>
