<svg width="120" height="64" viewBox="0 0 120 64" fill="none" xmlns="http://www.w3.org/2000/svg">
<path d="M48.7775 44.2118C48.7775 43.2423 49.4119 42.8092 50.2644 42.8092C50.7204 42.8092 51.0575 42.9123 51.3549 43.0567V39.942C50.8989 39.7151 50.2644 39.5913 49.6102 39.5913C46.8147 39.5913 45.1691 41.3034 45.1691 44.1293V44.3975H43.8408V47.4297H45.1691V54.7111H48.7775V47.4297H51.2161V44.3975H48.7775V44.2118Z" fill="black"/>
<path d="M56.2916 54.7112V44.3976H52.6634V54.7112H56.2916ZM56.5097 41.4891C56.5097 40.3752 55.6175 39.4058 54.4676 39.4058C53.3573 39.4058 52.4453 40.3546 52.4453 41.4891C52.4453 42.6236 53.3573 43.5725 54.4676 43.5725C55.6175 43.5725 56.5097 42.603 56.5097 41.4891Z" fill="black"/>
<path d="M61.4005 49.2245C61.4005 48.1518 61.916 47.5537 62.709 47.5537C63.502 47.5537 63.9779 48.1312 63.9779 49.1832V54.7113H67.6061V48.1518C67.6061 45.6559 66.2975 44.1089 64.1563 44.1089C62.9469 44.1089 61.9556 44.6452 61.4005 45.6559V44.3977H57.7723V54.7113H61.4005V49.2245Z" fill="black"/>
<path d="M73.5394 44.1914C70.5405 44.1914 68.6171 46.8936 68.6171 49.5958C68.6171 52.6074 70.7267 55.0001 73.498 55.0001C75.5662 55.0001 76.3521 53.7419 76.3521 53.7419V54.732H79.8473V44.4389H76.3521V45.3672C76.3521 45.3672 75.4628 44.1914 73.5394 44.1914ZM74.2839 47.5124C75.6903 47.5124 76.3935 48.6057 76.3935 49.5958C76.3935 50.6684 75.6283 51.7204 74.2839 51.7204C73.1878 51.7204 72.1744 50.8128 72.1744 49.637C72.1744 48.4613 72.981 47.5124 74.2839 47.5124Z" fill="black"/>
<path d="M85.1918 49.2245C85.1918 48.1518 85.7073 47.5537 86.5003 47.5537C87.2934 47.5537 87.7692 48.1312 87.7692 49.1832V54.7113H91.3974V48.1518C91.3974 45.6559 90.0889 44.1089 87.9476 44.1089C86.7382 44.1089 85.7469 44.6452 85.1918 45.6559V44.3977H81.5636V54.7113H85.1918V49.2245Z" fill="black"/>
<path d="M92.468 49.5545C92.468 52.8961 94.7678 55.0001 97.7616 55.0001C98.5348 55.0001 99.3675 54.8351 100.141 54.4226V50.9984C99.5856 51.411 98.9908 51.6172 98.3365 51.6172C97.0676 51.6172 96.1358 50.7921 96.1358 49.5545C96.1358 48.3169 97.0676 47.4918 98.3365 47.4918C98.9709 47.4918 99.5657 47.6774 100.141 48.0693V44.6452C99.4468 44.2945 98.5943 44.1089 97.821 44.1089C94.7083 44.1089 92.468 46.3985 92.468 49.5545Z" fill="black"/>
<path d="M108.034 51.0809C107.657 51.7204 107.181 51.9885 106.388 51.9885C105.436 51.9885 104.643 51.3903 104.564 50.5034H111.424C111.444 50.3177 111.464 50.0702 111.464 49.7402C111.464 46.3366 109.382 44.1089 106.289 44.1089C103.295 44.1089 101.015 46.4398 101.015 49.5545C101.015 52.793 103.236 55.0001 106.408 55.0001C108.648 55.0001 110.333 54.01 111.146 52.2154L108.034 51.0809ZM104.584 48.3375C104.663 47.5743 105.337 46.9967 106.269 46.9967C107.201 46.9967 107.875 47.533 107.954 48.3375H104.584Z" fill="black"/>
<path d="M0 18.0698H7.13921L11.2963 28.6638L15.5073 18.0698H22.4585L11.9916 43.1492H4.99631L7.86147 36.5035L0 18.0698Z" fill="black"/>
<path d="M29.6998 17.6479C24.3358 17.6479 20.9448 22.4399 20.9448 27.2119C20.9448 32.5818 24.6626 36.8391 29.5981 36.8391C33.2797 36.8391 34.6679 34.6048 34.6679 34.6048V36.3453H40.8947V18.0698H34.6679V19.7312C34.6679 19.7312 33.1192 17.6479 29.6998 17.6479ZM31.0243 23.521C33.4993 23.521 34.7765 25.4717 34.7765 27.2319C34.7765 29.1274 33.4082 30.9874 31.0243 30.9874C29.0486 30.9874 27.2631 29.3791 27.2631 27.3126C27.2631 25.2169 28.6993 23.521 31.0243 23.521Z" fill="black"/>
<path d="M43.0391 36.3452V10H49.5519V19.7945C49.5519 19.7945 51.0989 17.6502 54.3388 17.6502C58.3018 17.6502 60.6237 20.5915 60.6237 24.7944V36.3452H54.1586V26.3767C54.1586 24.9544 53.4784 23.5803 51.9377 23.5803C50.3693 23.5803 49.5519 24.9752 49.5519 26.3767V36.3452H43.0391Z" fill="black"/>
<path d="M71.7279 17.6499C65.5851 17.6499 61.9273 22.3027 61.9273 27.2877C61.9273 32.9607 66.356 36.8389 71.7511 36.8389C76.9803 36.8389 81.556 33.1367 81.556 27.3829C81.556 21.0871 76.7651 17.6499 71.7279 17.6499ZM71.7865 23.5745C73.9564 23.5745 75.4577 25.3748 75.4577 27.2945C75.4577 28.9318 74.0588 30.9514 71.7865 30.9514C69.7045 30.9514 68.142 29.2878 68.142 27.2766C68.142 25.3391 69.4411 23.5745 71.7865 23.5745Z" fill="black"/>
<path d="M92.406 17.6499C86.2632 17.6499 82.6055 22.3027 82.6055 27.2877C82.6055 32.9607 87.0342 36.8389 92.4293 36.8389C97.6585 36.8389 102.234 33.1367 102.234 27.3829C102.234 21.0871 97.4433 17.6499 92.406 17.6499ZM92.4647 23.5745C94.6346 23.5745 96.1359 25.3748 96.1359 27.2945C96.1359 28.9318 94.7369 30.9514 92.4647 30.9514C90.3827 30.9514 88.8202 29.2878 88.8202 27.2766C88.8202 25.3391 90.1192 23.5745 92.4647 23.5745Z" fill="black"/>
<path d="M107.373 36.7329C109.762 36.7329 111.698 34.8042 111.698 32.4251C111.698 30.0459 109.762 28.1172 107.373 28.1172C104.985 28.1172 103.049 30.0459 103.049 32.4251C103.049 34.8042 104.985 36.7329 107.373 36.7329Z" fill="black"/>
<path d="M113.119 26.535H105.333L112.243 10H120L113.119 26.535Z" fill="black"/>
</svg>
