<svg width="120" height="64" viewBox="0 0 120 64" fill="none" xmlns="http://www.w3.org/2000/svg">
<path fill-rule="evenodd" clip-rule="evenodd" d="M67.6192 0.64768C61.8468 2.38483 58.0477 8.92841 58.616 16.1568C59.0744 21.9927 61.3239 25.6343 69.5759 33.8995C78.2433 42.5811 79.9703 45.4975 79.9751 51.4595C79.9869 66.9832 64.8794 63.6403 61.7078 47.417C60.8834 43.2003 60.394 41.9364 59.6737 42.1606C58.595 42.4967 58.7009 63.2667 59.7812 63.2667C60.2645 63.2667 60.6603 63.0162 60.6603 62.7099C60.6603 59.9963 63.3268 59.5256 66.7987 61.6258C78.4564 68.678 90.6724 55.951 86.5764 41.021C85.1188 35.7085 82.7889 32.467 74.5043 24.2263C68.188 17.9425 66.3598 15.0935 66.0117 10.9894C65.5389 5.42066 67.7165 2.26328 71.8098 2.58062C76.9351 2.9787 80.2188 8.01966 81.7161 17.7883C82.2042 20.9726 82.3911 21.4592 83.1268 21.4592C83.9421 21.4592 83.979 21.0522 84.0911 10.9564C84.1996 1.14366 84.157 0.453939 83.4374 0.462505C83.0008 0.4674 82.3846 1.04087 82.0137 1.78811C81.1052 3.61826 79.9154 3.63783 77.0702 1.86968C74.2332 0.106834 70.8651 -0.32878 67.6192 0.64768ZM0.0860672 1.1873C0.0860672 1.64902 0.626006 2.10381 1.5429 2.4142C3.61592 3.11575 3.30347 2.01611 10.602 34.2796L17.2604 63.7133L19.007 63.5918L20.7536 63.4706L21.7167 58.78C22.2462 56.2002 23.9794 47.5735 25.5682 39.6098C28.878 23.0177 28.9019 22.9243 29.2954 24.9262C29.4497 25.7113 30.717 31.493 32.1111 37.7743C33.5056 44.0556 35.3515 52.4069 36.214 56.3327L37.7814 63.4706L39.1739 63.5967C40.9184 63.7549 39.1543 70.6672 51.2795 16.1568C53.8833 4.45073 54.2467 3.43512 56.1289 2.59489C59.5752 1.05678 58.2124 0.45353 51.2909 0.45353C45.3863 0.45353 44.972 0.504107 44.972 1.22401C44.972 1.79178 45.4016 2.06873 46.6062 2.27797C50.8538 3.01582 50.8246 4.20968 46.0157 26.5059C43.9531 36.0685 42.2283 43.9317 42.1821 43.9793C42.1363 44.0275 41.2538 39.9895 40.2211 35.006C39.1887 30.023 37.4838 21.8161 36.4327 16.7687C33.7975 4.11138 33.8843 2.91671 37.4834 2.24289C38.4509 2.0618 38.871 1.7514 38.871 1.2183C38.871 0.495542 38.382 0.45353 29.9373 0.45353C21.6269 0.45353 21.0037 0.504516 21.0037 1.1873C21.0037 1.65432 21.5529 2.10706 22.5151 2.43255C24.2665 3.0256 24.3244 3.17122 26.0832 11.4063C27.13 16.307 27.195 17.1044 26.7292 19.3599C26.0201 22.7967 21.8823 43.7044 21.8461 44.0345C21.773 44.7046 13.6307 6.63207 13.6142 5.54099C13.5893 3.89642 14.6099 2.61813 16.2106 2.28897C17.1091 2.10421 17.5175 1.77546 17.5175 1.23706C17.5175 0.490646 17.107 0.45353 8.80178 0.45353C0.70096 0.45353 0.0860672 0.505332 0.0860672 1.1873ZM100.753 1.2285C100.753 1.82196 101.265 2.11889 102.941 2.49496C106.138 3.21283 105.982 1.80033 105.982 30.021C105.982 60.6162 105.888 61.2273 101.187 61.2273C95.8155 61.2273 94.3338 57.7313 98.3457 54.5234C102.339 51.3301 102.582 47.2758 98.8816 45.5839C92.9289 42.8622 88.2699 50.3891 91.5744 57.3888C95.6412 66.0036 109.711 65.6046 113.776 56.7594C115.348 53.3386 115.552 49.9274 115.56 26.8367C115.57 2.48027 115.496 3.17041 118.191 2.49088C119.466 2.16988 119.927 1.84113 119.927 1.25338C119.927 0.482897 119.574 0.45353 110.34 0.45353C101.211 0.45353 100.753 0.490647 100.753 1.2285Z" fill="black"/>
</svg>
