<svg width="120" height="64" viewBox="0 0 120 64" fill="none" xmlns="http://www.w3.org/2000/svg">
<path d="M119.666 62.7078L0.166765 62.8331L0.083374 19.8425L60 1.04199L119.666 20.0097V62.7078Z" fill="black"/>
<path d="M20.0556 34.2558V32.5429C20.0556 30.7046 19.3051 30.1197 18.4295 30.4122C17.0952 30.83 16.6366 31.7491 16.6366 33.3785V44.4917C16.6366 46.1211 17.0535 46.7895 18.4295 46.3717C19.6386 45.9957 20.0556 45.0766 20.0556 43.6561V41.024L23.3912 39.9795V42.4863C23.3912 45.5779 21.7651 48.586 18.4295 49.6305C14.927 50.7167 13.3009 48.7114 13.3009 45.6197V34.3394C13.3009 31.2477 14.927 28.2397 18.4295 27.1534C21.7651 26.1089 23.3912 28.3232 23.3912 31.6238V33.2531L20.0556 34.2558Z" fill="white"/>
<path d="M29.9791 23.8532L33.3148 22.8087V39.3114C33.3148 40.9408 33.8985 41.5257 35.1077 41.1497C36.3169 40.7737 36.9006 39.8128 36.9006 38.1834V21.6807L40.2363 20.6362V37.0136C40.2363 40.7737 38.2766 43.4476 35.1077 44.4085C31.9388 45.3694 29.9791 43.9489 29.9791 40.1888V23.8532Z" fill="white"/>
<path d="M50.2015 27.3624L51.369 26.9864C53.1619 26.4433 53.829 25.4406 53.829 22.8503C53.829 20.26 53.1619 19.7169 51.369 20.26L50.2015 20.636V27.3624ZM50.2015 39.4366L46.8658 40.481V18.5889L51.5358 17.1266C55.2884 15.9568 57.1647 17.1684 57.1647 21.8058C57.1647 25.3153 55.9555 27.1118 54.8297 28.0727L57.665 37.0969L54.246 38.1414L51.8693 29.8274C51.4524 30.0363 50.7435 30.2452 50.1598 30.4541L50.2015 39.4366Z" fill="white"/>
<path d="M67.2967 35.5511L68.6727 35.9689C70.4656 36.512 71.091 35.5928 71.091 33.3786C71.091 31.1225 70.3405 29.7856 68.3391 29.1589L67.255 28.8247L67.2967 35.5511ZM67.2967 25.733L68.5059 26.109C69.7984 26.485 70.7574 25.8583 70.7574 24.0201C70.7574 22.0147 70.0486 20.7195 68.5893 20.26L67.2967 19.884V25.733ZM63.9611 15.7061L68.9228 17.2519C72.5087 18.3799 74.0931 20.9284 74.0931 24.6468C74.0931 26.5268 73.3843 28.2815 71.7998 28.4904C73.5094 29.8691 74.5101 31.7074 74.5101 34.5066C74.5101 38.0996 73.0924 40.3974 69.2981 39.1858L64.0028 37.5147L63.9611 15.7061Z" fill="white"/>
<path d="M80.8478 42.9044V21.0122L89.7706 23.8114V27.0702L84.1834 25.3154V30.9556L88.4781 32.2925V35.5513L84.1834 34.2144V40.6483L90.1459 42.5284V45.7871L80.8478 42.9044Z" fill="white"/>
<path d="M99.7777 45.7454L100.945 46.1214C102.738 46.6645 103.363 46.1214 103.363 43.8236V34.2562C103.363 31.9583 102.738 30.9974 100.945 30.4543L99.7777 30.0783V45.7454ZM96.442 25.9004L101.404 27.4462C104.823 28.5325 106.699 31.2063 106.699 35.7185V44.3667C106.699 48.8371 104.865 50.4247 101.404 49.3384L96.442 47.7926V25.9004Z" fill="white"/>
<path d="M60 1L59.0827 1.29245L2.16817 19.0903L0 19.7588V62.9582H119.958V19.7588L117.79 19.0903L60.9173 1.29245L60 1ZM60 4.25876L116.915 22.0566V59.9084H3.12717V22.0148L60 4.25876Z" fill="white"/>
</svg>
